<?xml version="1.0" encoding="UTF-8" standalone="no"?><!DOCTYPE svg PUBLIC "-//W3C//DTD SVG 1.1//EN" "http://www.w3.org/Graphics/SVG/1.1/DTD/svg11.dtd"><svg width="100%" height="100%" viewBox="0 0 567 392" version="1.1" xmlns="http://www.w3.org/2000/svg" xmlns:xlink="http://www.w3.org/1999/xlink" xml:space="preserve" xmlns:serif="http://www.serif.com/" style="fill-rule:evenodd;clip-rule:evenodd;stroke-linejoin:round;stroke-miterlimit:2;"><path d="M85.416,156.971l1.995,-0.449c0,-0 -1.891,-45.41 60.932,-88.712c17.277,-11.908 55.375,-35.324 119.287,-46.967c50.573,-9.212 97.032,-8.01 146.244,6.843c70.525,21.285 79.925,68.635 79.925,68.635l6.741,-1.469c0.441,2.942 0.67,5.889 0.693,8.839l-306.766,69.529l6.585,-31.08l-113.31,26.195c-0.832,-2.745 -1.478,-5.551 -1.93,-8.412c-0.155,-0.981 -0.287,-1.963 -0.396,-2.952Z" style="fill:url(#_Linear1);"/><path id="Form" d="M33.553,154.444l35.369,-9.527c-0,0 0.28,-43.989 60.251,-85.325c29.981,-20.664 73.887,-42.171 134.821,-53.271c54.46,-9.92 111.4,-8.151 156.777,5.214c74.458,21.929 85.701,67.477 85.701,67.477l60.457,-13.201l-36.283,215.873l-521.55,109.806l25.762,-117.505l-34.858,5.602l33.553,-125.143Zm12.468,11.4l41.39,-9.322c0,-0 -1.891,-45.41 60.932,-88.712c17.277,-11.908 55.375,-35.324 119.287,-46.967c50.573,-9.212 97.032,-8.01 146.244,6.843c70.525,21.285 79.925,68.635 79.925,68.635l58.966,-12.841l-34.515,183.672l-488.194,107.672l26.668,-122.92l-36.513,8.506l25.81,-94.566Zm7.868,10.317l147.163,-34.021l-6.585,31.08l345.331,-78.27l-31.225,158.166l-467.794,109.566l27.245,-122.353l-34.446,7.616l20.311,-71.784Zm131.548,-96.023c0.745,0.65 0.733,1.373 -0.704,2.874c-1.47,1.535 -10.618,8.537 -11.086,13.258c-0.173,1.744 -0.443,4.077 8.668,4.161c21.917,0.202 57.835,-13.397 71.505,-16.904c6.41,-1.645 10.572,-1.648 15.888,-4.111c3.96,-1.834 11.167,-7.908 15.661,-10.668c6.367,-3.912 15.371,-7.959 19.943,-11.959c3.653,-3.194 6.429,-6.527 6.312,-6.632c-0.122,-0.111 -2.871,0.277 -6.069,1.554c-2.761,1.102 -7.115,4.309 -7.205,4.103c-0.088,-0.203 3.554,-3.865 6.495,-6.071c2.45,-1.837 8.167,-2.28 8.145,-2.5c-0.021,-0.219 -5.54,-1.47 -8.692,-1.378c-3.507,0.102 -6.774,0.793 -6.836,0.668c-0.063,-0.126 4.617,-4.431 12.542,-6.227c7.25,-1.643 13.614,-2.455 13.591,-2.618c-0.036,-0.244 -2.995,-0.541 -5.475,-0.388c-2.48,0.154 -6.461,1.205 -6.514,1.128c-0.071,-0.105 3.785,-2.742 6.643,-3.446c2.084,-0.513 5.413,-0.753 7.006,-1.184c3.154,-0.853 6.235,-3.029 6.138,-3.137c-0.136,-0.152 -7.126,0.139 -10.334,0.168c-5.933,0.054 -8.2,1.519 -8.266,1.444c-0.054,-0.061 2.616,-2.844 7.645,-3.589c9.876,-1.463 18.844,-0.526 18.908,-0.748c0.069,-0.237 -4.799,-1.768 -8.861,-2.28c-5.219,-0.659 -8.818,0.144 -8.956,0.035c-0.057,-0.044 0.823,-6.443 43.028,-1.202c5.144,0.639 22.632,5.876 26.729,8.638c4.097,2.761 15.664,18.615 15.901,19.467c0.236,0.851 0.596,3.179 -0.051,4.245c-0.755,1.243 -4.196,2.481 -4.108,3.924c0.144,2.385 2.818,3.773 3.694,5.906c0.893,2.173 2.335,10.217 2.08,14.438c-0.032,0.526 -5.561,4.67 -6.891,5.686c-0.309,0.235 -3.184,0.219 -3.529,0.047c-2.019,-1.011 -5.556,-5.068 -7.986,-6.273c-0.611,-0.303 -6.804,-0.737 -6.744,-0.092c0.056,0.594 5.331,3.203 7.871,4.884c1.933,1.28 3.33,3.518 4.496,5.109c0.21,0.287 1.137,5.438 0.067,6.99c-1.139,1.655 -6.679,3.897 -11.245,3.463c-0.822,-0.078 -3.004,-5.033 -4.117,-5.023c-1.113,0.01 -3.011,4.724 -3.52,5.191c-0.207,0.19 -7.148,0.176 -7.465,-0.052c-0.909,-0.655 -2.392,-6.753 -5.424,-7.899c-0.487,-0.183 -28.804,0.618 -36.707,1.256c-2.329,0.188 -10.665,3.514 -22.731,4.652c-1.999,0.188 -11.388,3.659 -14.36,5.619c-2.973,1.959 -16.805,20.396 -33.695,33.928c-1.314,1.053 -17.11,7.73 -19.043,9.585c-3.624,3.477 -10.017,13.116 -15.107,16.704c-4.766,3.36 -19.65,2.139 -17.474,0.866c3.505,-2.051 8.459,-16.017 10.459,-19.248c4.716,-7.621 11.197,-11.885 14.713,-18.049c3.515,-6.165 4.144,-13.315 5.954,-17.743c1.81,-4.428 7.682,-9.53 6.501,-11.434c-3.555,-5.731 -32.829,4.228 -40.761,5.384c-2.879,0.42 -28.906,3.264 -34.04,-4.924c-2.082,-3.321 9.265,-15.535 14.566,-19.328c1.248,-0.893 2.247,-0.79 2.847,-0.268Z"/><g id="Relief"><path d="M508.573,253.116l9.677,14.036l-488.194,107.672l10.723,-12.142l467.794,-109.566Z" style="fill:#fff870;"/><path d="M46.021,165.844l168.792,-38.185l-13.727,14.444l-0.034,0.037l-0,-0l-147.163,34.021c-0,0 -7.868,-10.317 -7.868,-10.317Z" style="fill:#fff310;"/><path d="M209.565,158.107l-0.001,0l-15.097,15.113l-0,-0l6.585,-31.08l0.034,-0.037l13.727,-14.444l-5.248,30.448Z" style="fill:#bfb60c;"/><path d="M194.467,173.22l15.097,-15.113l0.001,0l343.2,-74.627l-12.967,11.47l-345.331,78.27Z" style="fill:#fff310;"/><path d="M518.25,267.152l-9.677,-14.036c-0,-0 31.225,-158.166 31.225,-158.166l-0,-0l12.967,-11.47l-34.515,183.672Z" style="fill:#bfb60c;"/><path d="M46.021,165.844l7.868,10.317l-20.311,71.784l34.446,-7.616l-27.245,122.353l-10.723,12.142l26.668,-122.92l-36.513,8.506l25.81,-94.566Z" style="fill:#807a08;"/></g><path id="Schrift" d="M68.747,334.674l24.474,-117.753l-35.265,7.767l6.83,-33.125l114.273,-25.539l-6.943,33.167l-31.222,6.838l-24.572,118.067l-47.575,10.578Zm120.318,-29.07l23.927,-115.665l-36.476,8.052l-23.913,115.621l36.462,-8.008Zm55.74,-12.55l9.87,-47.501l26.662,-5.808l5.164,-25.359l-26.483,5.879l3.396,-17.724l26.909,-5.756l5.176,-25.341l-63.299,13.971l-24.031,115.821l36.636,-8.182Zm152.414,-128.765c1.11,-5.411 -4.116,-14.756 -16.442,-12.046l-54.96,12.605c-0.875,0.192 -14.081,3.442 -16.756,16.471l-17.12,81.86c-3.228,15.724 10.155,16.808 14.418,15.87l53.611,-12.06c3.795,-0.835 16.643,-2.684 20.272,-20.361c-0,0 -0.025,0.488 16.977,-82.339Zm-40.006,25.171c1.054,-5.132 -2.267,-6.616 -4.987,-6.545c-5.097,0.133 -9.548,4.034 -10.483,8.589l-10.321,50.097c-0.959,4.672 2.325,6.525 4.986,6.473c4.507,-0.087 9.082,-2.94 10.197,-7.62l10.608,-50.994Zm144.927,-49.387c1.111,-5.411 -4.115,-14.756 -16.442,-12.046l-54.959,12.605c-0.876,0.192 -14.082,3.443 -16.757,16.471l-17.12,81.86c-3.228,15.725 10.155,16.808 14.418,15.87l53.611,-12.06c3.795,-0.835 16.643,-2.684 20.272,-20.361c-0,0 -0.025,0.488 16.977,-82.339Zm-40.006,25.171c1.054,-5.132 -2.267,-6.615 -4.987,-6.545c-5.097,0.133 -9.548,4.034 -10.483,8.589l-10.321,50.098c-0.958,4.671 2.325,6.524 4.986,6.473c4.508,-0.088 9.082,-2.94 10.197,-7.62l10.608,-50.995Z" style="fill:#fff;"/><defs><linearGradient id="_Linear1" x1="0" y1="0" x2="1" y2="0" gradientUnits="userSpaceOnUse" gradientTransform="matrix(-51.0081,201.595,-76.7143,-19.4105,344.333,-42.8979)"><stop offset="0" style="stop-color:#fff;stop-opacity:1"/><stop offset="1" style="stop-color:#fbed15;stop-opacity:1"/></linearGradient></defs></svg>